<svg id="Capa_1" enable-background="new 0 0 512 512" height="512" viewBox="0 0 512 512" width="512" xmlns="http://www.w3.org/2000/svg"><g><g><g><g><path d="m468.186 283.169c58.459-58.606 58.418-153.502-.132-212.052-58.551-58.551-153.45-58.591-212.055-.129-58.605-58.462-153.505-58.422-212.055.129-58.549 58.549-58.591 153.446-.132 212.052l204.903 204.909c4.023 4.023 10.546 4.023 14.569 0z" fill="#fb4a59"/><g fill="#f82f40"><ellipse cx="256" cy="279.216" rx="116.81" ry="18.126"/><path d="m468.185 283.169-204.902 204.913c-4.018 4.018-10.549 4.018-14.567 0l-20.562-20.562 200.009-200.009c58.452-58.607 58.411-153.507-.134-212.052-9.745-9.745-20.501-17.873-31.936-24.374 26.373 6.13 51.396 19.47 71.958 40.033 58.556 58.544 58.597 153.444.134 212.051z"/></g></g></g></g><g><path d="m401.596 166.498c0 54.466-29.917 101.947-74.204 126.908h-142.784c-44.287-24.961-74.204-72.442-74.204-126.908 0-47.594 22.839-89.852 58.154-116.41l8.396 3.966c8.643 4.193 12.352 14.278 8.53 23.004l-20.501 46.471c-.196.453-.237.968-.103 1.453l8.231 29.504c.67 2.359.824 4.79.474 7.232l-5.429 38.189c-.082.536.041 1.061.34 1.514l12.743 19.192c.567.855 1.38.979 1.813.979.525 0 1.267-.165 1.803-.948 3.616-5.336 9.622-8.612 16.071-8.767l17.75-.433h.381c4.945 0 9.653 2.05 12.991 5.666l10.477 11.353c.443.474 1.082.731 1.751.69l23.354-1.556c1.205-.082 1.71-.855 1.916-1.483.216-.628.268-1.545-.649-2.339l-13.887-11.95c-4.43-3.801-6.676-9.55-6.016-15.36l.773-6.82c.762-6.789 5.419-12.651 11.857-14.948l71.711-25.548c.927-.33 1.576-1.144 1.7-2.122l.999-8.314c.124-.979-.319-1.659-.587-1.978-.278-.33-.886-.876-1.865-.907l-77.645-2.895c-4.759-.185-9.169-2.194-12.434-5.645l-14.968-15.824c-4.904-5.161-6.212-12.723-3.317-19.254l11.363-25.672c2.205-4.986 6.686-8.715 11.991-9.993l10.271-2.503c2.771-.67 5.697-.659 8.447.031l42.258 10.559c.752.185 1.545-.041 2.081-.598l9.581-9.818c.536-.536.742-1.298.556-2.04l-4.409-17.75c49.748 23.151 84.239 73.588 84.239 132.072z" fill="#31a7fb"/><path d="m401.596 166.498c0 54.466-29.917 101.936-74.204 126.908h-31.513c44.287-24.972 74.194-72.442 74.194-126.908 0-44.154-19.656-83.713-50.685-110.404l1.823-1.875c.536-.536.742-1.298.556-2.04l-4.409-17.75c49.747 23.148 84.238 73.585 84.238 132.069z" fill="#1c96f9"/><path d="m343.71 139.643-1.01 8.324c-.474 3.873-3.091 7.149-6.768 8.458l-71.711 25.548c-3.698 1.319-6.336 4.626-6.779 8.54l-.773 6.83c-.371 3.255.896 6.49 3.379 8.623l13.887 11.95c6.727 5.779 3.049 16.802-5.79 17.389l-23.365 1.556c-2.987.196-5.903-.968-7.932-3.163l-10.467-11.342c-1.937-2.091-4.667-3.245-7.52-3.183l-17.76.433c-3.966.093-7.634 2.102-9.859 5.378-1.968 2.895-5.079 4.337-8.19 4.337-3.152 0-6.294-1.483-8.252-4.43l-12.743-19.192c-1.35-2.029-1.896-4.471-1.556-6.882l5.439-38.199c.196-1.36.103-2.74-.268-4.059l-8.231-29.494c-.618-2.205-.443-4.553.474-6.655l20.49-46.461c2.143-4.883.051-10.58-4.749-12.908l-11.713-5.676c25.373-21.5 58.205-34.46 94.056-34.46 25.569 0 49.603 6.593 70.485 18.172l2.781 11.25c.824 3.327-.124 6.84-2.524 9.292l-9.581 9.818c-2.462 2.524-6.078 3.544-9.488 2.689l-42.268-10.559c-1.556-.391-3.173-.391-4.739-.01l-10.292 2.503c-2.998.721-5.481 2.792-6.727 5.604l-11.363 25.682c-1.617 3.647-.886 7.912 1.865 10.807l14.979 15.834c1.854 1.968 4.399 3.121 7.098 3.224l77.645 2.895c6.028.226 10.571 5.562 9.84 11.537z" fill="#27e19d"/><path d="m326.743 59.619-1.638 1.679c-22.561-21.613-52.055-36.015-84.815-39.549 5.161-.556 10.405-.845 15.71-.845 25.569 0 49.603 6.593 70.485 18.172l2.781 11.25c.825 3.328-.123 6.841-2.523 9.293z" fill="#26d192"/></g><path d="m368.785 304.431c-22.559-21.489-64.603-35.942-112.785-35.942s-90.226 14.453-112.785 35.942z" fill="#fb4a59"/><g><g><path d="m206.676 149.494c-1.977 0-3.955-.755-5.463-2.263l-7.576-7.576c-3.018-3.017-3.018-7.909 0-10.927 3.017-3.017 7.909-3.017 10.927 0l2.113 2.113 2.113-2.113c3.017-3.017 7.909-3.017 10.927 0s3.018 7.909 0 10.927l-7.576 7.576c-1.51 1.509-3.488 2.263-5.465 2.263z" fill="#72f4c3"/></g></g><g><g><path d="m324.163 214.694c-1.977 0-3.955-.755-5.463-2.263l-7.576-7.576c-3.018-3.017-3.018-7.909 0-10.927 3.017-3.017 7.909-3.017 10.927 0l2.113 2.113 2.113-2.113c3.017-3.017 7.909-3.017 10.927 0s3.018 7.909 0 10.927l-7.576 7.576c-1.51 1.509-3.488 2.263-5.465 2.263z" fill="#1c96f9"/></g></g></g></svg>